TITLE ""
FILE "Disc3Track65.mp3" MP3
  TRACK 01 AUDIO
    TITLE "Disc3Track65_01"
    INDEX 01 00:00:00
  TRACK 02 AUDIO
    TITLE "Disc3Track65_02"
    INDEX 01 00:01:04
  TRACK 03 AUDIO
    TITLE "Disc3Track65_03"
    INDEX 01 00:02:58
  TRACK 04 AUDIO
    TITLE "Disc3Track65_04"
    INDEX 01 00:03:71
  TRACK 05 AUDIO
    TITLE "Disc3Track65_05"
    INDEX 01 00:08:04
  TRACK 06 AUDIO
    TITLE "Disc3Track65_06"
    INDEX 01 00:08:35
  TRACK 07 AUDIO
    TITLE "Disc3Track65_07"
    INDEX 01 00:09:66
  TRACK 08 AUDIO
    TITLE "Disc3Track65_08"
    INDEX 01 00:12:51
  TRACK 09 AUDIO
    TITLE "Disc3Track65_09"
    INDEX 01 00:14:07
  TRACK 10 AUDIO
    TITLE "Disc3Track65_10"
    INDEX 01 00:18:24
  TRACK 11 AUDIO
    TITLE "Disc3Track65_11"
    INDEX 01 00:18:57
  TRACK 12 AUDIO
    TITLE "Disc3Track65_12"
    INDEX 01 00:20:09
  TRACK 13 AUDIO
    TITLE "Disc3Track65_13"
    INDEX 01 00:21:46
  TRACK 14 AUDIO
    TITLE "Disc3Track65_14"
    INDEX 01 00:22:73
  TRACK 15 AUDIO
    TITLE "Disc3Track65_15"
    INDEX 01 00:29:02
  TRACK 16 AUDIO
    TITLE "Disc3Track65_16"
    INDEX 01 00:29:34
  TRACK 17 AUDIO
    TITLE "Disc3Track65_17"
    INDEX 01 00:30:60
  TRACK 18 AUDIO
    TITLE "Disc3Track65_18"
    INDEX 01 00:34:11
  TRACK 19 AUDIO
    TITLE "Disc3Track65_19"
    INDEX 01 00:35:34
  TRACK 20 AUDIO
    TITLE "Disc3Track65_20"
    INDEX 01 00:40:24
  TRACK 21 AUDIO
    TITLE "Disc3Track65_21"
    INDEX 01 00:40:57
  TRACK 22 AUDIO
    TITLE "Disc3Track65_22"
    INDEX 01 00:42:19
  TRACK 23 AUDIO
    TITLE "Disc3Track65_23"
    INDEX 01 00:44:06
  TRACK 24 AUDIO
    TITLE "Disc3Track65_24"
    INDEX 01 00:45:42
  TRACK 25 AUDIO
    TITLE "Disc3Track65_25"
    INDEX 01 00:45:74
  TRACK 26 AUDIO
    TITLE "Disc3Track65_26"
    INDEX 01 00:47:14
  TRACK 27 AUDIO
    TITLE "Disc3Track65_27"
    INDEX 01 00:49:32
  TRACK 28 AUDIO
    TITLE "Disc3Track65_28"
    INDEX 01 00:50:47
  TRACK 29 AUDIO
    TITLE "Disc3Track65_29"
    INDEX 01 00:55:21
  TRACK 30 AUDIO
    TITLE "Disc3Track65_30"
    INDEX 01 00:55:52
  TRACK 31 AUDIO
    TITLE "Disc3Track65_31"
    INDEX 01 00:56:75
  TRACK 32 AUDIO
    TITLE "Disc3Track65_32"
    INDEX 01 00:59:56
  TRACK 33 AUDIO
    TITLE "Disc3Track65_33"
    INDEX 01 01:01:04
  TRACK 34 AUDIO
    TITLE "Disc3Track65_34"
    INDEX 01 01:01:43
  TRACK 35 AUDIO
    TITLE "Disc3Track65_35"
    INDEX 01 01:02:49
  TRACK 36 AUDIO
    TITLE "Disc3Track65_36"
    INDEX 01 01:04:55
  TRACK 37 AUDIO
    TITLE "Disc3Track65_37"
    INDEX 01 01:05:55
  TRACK 38 AUDIO
    TITLE "Disc3Track65_38"
    INDEX 01 01:07:44
  TRACK 39 AUDIO
    TITLE "Disc3Track65_39"
    INDEX 01 01:08:02
  TRACK 40 AUDIO
    TITLE "Disc3Track65_40"
    INDEX 01 01:09:17
  TRACK 41 AUDIO
    TITLE "Disc3Track65_41"
    INDEX 01 01:10:15
  TRACK 42 AUDIO
    TITLE "Disc3Track65_42"
    INDEX 01 01:11:30
  TRACK 43 AUDIO
    TITLE "Disc3Track65_43"
    INDEX 01 01:13:27
  TRACK 44 AUDIO
    TITLE "Disc3Track65_44"
    INDEX 01 01:13:58
  TRACK 45 AUDIO
    TITLE "Disc3Track65_45"
    INDEX 01 01:14:66
  TRACK 46 AUDIO
    TITLE "Disc3Track65_46"
    INDEX 01 01:15:75
  TRACK 47 AUDIO
    TITLE "Disc3Track65_47"
    INDEX 01 01:17:05
  TRACK 48 AUDIO
    TITLE "Disc3Track65_48"
    INDEX 01 01:19:02
  TRACK 49 AUDIO
    TITLE "Disc3Track65_49"
    INDEX 01 01:19:31
  TRACK 50 AUDIO
    TITLE "Disc3Track65_50"
    INDEX 01 01:20:45
  TRACK 51 AUDIO
    TITLE "Disc3Track65_51"
    INDEX 01 01:21:54
  TRACK 52 AUDIO
    TITLE "Disc3Track65_52"
    INDEX 01 01:22:65
  TRACK 53 AUDIO
    TITLE "Disc3Track65_53"
    INDEX 01 01:23:31
  TRACK 54 AUDIO
    TITLE "Disc3Track65_54"
    INDEX 01 01:24:40
  TRACK 55 AUDIO
    TITLE "Disc3Track65_55"
    INDEX 01 01:26:14
  TRACK 56 AUDIO
    TITLE "Disc3Track65_56"
    INDEX 01 01:27:21
  TRACK 57 AUDIO
    TITLE "Disc3Track65_57"
    INDEX 01 01:27:64
  TRACK 58 AUDIO
    TITLE "Disc3Track65_58"
    INDEX 01 01:28:70
  TRACK 59 AUDIO
    TITLE "Disc3Track65_59"
    INDEX 01 01:31:07
  TRACK 60 AUDIO
    TITLE "Disc3Track65_60"
    INDEX 01 01:32:12
  TRACK 61 AUDIO
    TITLE "Disc3Track65_61"
    INDEX 01 01:37:16
  TRACK 62 AUDIO
    TITLE "Disc3Track65_62"
    INDEX 01 01:37:47
  TRACK 63 AUDIO
    TITLE "Disc3Track65_63"
    INDEX 01 01:38:62
  TRACK 64 AUDIO
    TITLE "Disc3Track65_64"
    INDEX 01 01:39:64
  TRACK 65 AUDIO
    TITLE "Disc3Track65_65"
    INDEX 01 01:41:02
  TRACK 66 AUDIO
    TITLE "Disc3Track65_66"
    INDEX 01 01:43:52
  TRACK 67 AUDIO
    TITLE "Disc3Track65_67"
    INDEX 01 01:44:04
  TRACK 68 AUDIO
    TITLE "Disc3Track65_68"
    INDEX 01 01:45:23
  TRACK 69 AUDIO
    TITLE "Disc3Track65_69"
    INDEX 01 01:46:18
  TRACK 70 AUDIO
    TITLE "Disc3Track65_70"
    INDEX 01 01:47:34
  TRACK 71 AUDIO
    TITLE "Disc3Track65_71"
    INDEX 01 01:50:63
  TRACK 72 AUDIO
    TITLE "Disc3Track65_72"
    INDEX 01 01:51:16
  TRACK 73 AUDIO
    TITLE "Disc3Track65_73"
    INDEX 01 01:52:21
  TRACK 74 AUDIO
    TITLE "Disc3Track65_74"
    INDEX 01 01:53:64
  TRACK 75 AUDIO
    TITLE "Disc3Track65_75"
    INDEX 01 01:54:67
  TRACK 76 AUDIO
    TITLE "Disc3Track65_76"
    INDEX 01 01:59:09
  TRACK 77 AUDIO
    TITLE "Disc3Track65_77"
    INDEX 01 01:59:41
  TRACK 78 AUDIO
    TITLE "Disc3Track65_78"
    INDEX 01 02:00:68
  TRACK 79 AUDIO
    TITLE "Disc3Track65_79"
    INDEX 01 02:03:33
  TRACK 80 AUDIO
    TITLE "Disc3Track65_80"
    INDEX 01 02:04:61
  TRACK 81 AUDIO
    TITLE "Disc3Track65_81"
    INDEX 01 02:05:26
  TRACK 82 AUDIO
    TITLE "Disc3Track65_82"
    INDEX 01 02:06:37
  TRACK 83 AUDIO
    TITLE "Disc3Track65_83"
    INDEX 01 02:08:22
  TRACK 84 AUDIO
    TITLE "Disc3Track65_84"
    INDEX 01 02:09:33
